<?xml version="1.0" encoding="utf-8"?><svg id="Scene_1_l1" image-rendering="auto" baseProfile="basic" version="1.1" x="0px" y="0px" width="120" height="120" overflow="visible" xmlns="http://www.w3.org/2000/svg" xmlns:xlink="http://www.w3.org/1999/xlink"><g style="display:none;"><g id="papillon_f0_d66_l1" transform="matrix(0.919 0.142 -0.142 0.919 52.2 42.65)" opacity="0.91"><animateTransform attributeName="transform" additive="replace" type="translate" dur="2.75s" keyTimes="0;1" values="0;0"/><animateTransform attributeName="transform" additive="sum" type="translate" dur="1.208s" keyTimes="0;0.516;0.517;0.551;0.552;0.585;0.586;0.62;0.621;0.654;0.655;0.689;0.69;0.723;0.724;0.758;0.759;0.792;0.793;0.827;0.828;0.861;0.862;0.896;0.897;0.93;0.931;0.965;0.966;0.999;1" values="59.4,46.05;59.4,46.05;59.75,44.9;59.75,44.9;60.15,43.7;60.15,43.7;60.5,42.55;60.5,42.55;60.85,41.35;60.85,41.35;61.25,40.2;61.25,40.2;61.6,39;61.6,39;61.95,37.85;61.95,37.85;62.3,36.65;62.3,36.65;62.7,35.5;62.7,35.5;63.05,34.3;63.05,34.3;63.4,33.15;63.4,33.15;63.8,31.95;63.8,31.95;64.15,30.8;64.15,30.8;67.9,29.55;67.9,29.55;71.7,28.45" calcMode="discrete"/><animateTransform attributeName="transform" additive="sum" type="translate" begin="1.208s" dur="0.625s" keyTimes="0;0.065;0.067;0.132;0.133;0.198;0.2;0.265;0.267;0.332;0.333;0.398;0.4;0.465;0.467;0.532;0.533;0.598;0.6;0.665;0.667;0.732;0.733;0.798;0.8;0.865;0.867;0.932;0.933;0.998;1" values="71.7,28.45;71.7,28.45;75.45,27.25;75.45,27.25;79.25,26.1;79.25,26.1;83,24.9;83,24.9;86.75,23.75;86.75,23.75;90.55,22.55;90.55,22.55;94.3,21.4;94.3,21.4;98.05,20.15;98.05,20.15;101.85,19.05;101.85,19.05;105.6,17.85;105.6,17.85;107.7,17.4;107.7,17.4;109.85,16.95;109.85,16.95;111.95,16.5;111.95,16.5;114.1,16;114.1,16;116.2,15.55;116.2,15.55;118.35,15.1"/><animateTransform attributeName="transform" additive="sum" type="translate" begin="1.833s" dur="0.667s" keyTimes="0;0.061;0.063;0.124;0.125;0.186;0.187;0.249;0.25;0.311;0.312;0.374;0.375;0.438;0.499;0.5;0.561;0.563;0.624;0.625;0.686;0.687;0.749;0.75;0.811;0.813;0.874;0.875;0.936;0.938;0.999;1" values="118.35,15.1;118.35,15.1;120.45,14.65;120.45,14.65;122.55,14.2;122.55,14.2;124.7,13.75;124.7,13.75;126.8,13.25;126.8,13.25;128.95,12.8;128.95,12.8;131.05,12.35;-11.9,12.2;-11.9,12.2;-4.7,15.6;-4.7,15.6;2.35,18.9;2.35,18.9;9.5,22.35;9.5,22.35;16.6,25.75;16.6,25.75;23.75,29.15;23.75,29.15;30.85,32.5;30.85,32.5;38,35.9;38,35.9;45.15,39.3;45.15,39.3;52.2,42.65"/><animateTransform attributeName="transform" additive="sum" type="translate" begin="2.5s" dur="0.25s" keyTimes="0;1" values="52.2,42.65;52.2,42.65" calcMode="discrete"/><animateTransform attributeName="transform" additive="sum" type="rotate" dur="2.25s" keyTimes="0;0.722;0.723;0.74;0.741;0.759;0.76;0.777;0.778;0.796;0.797;0.814;0.815;0.833;0.834;0.851;0.852;0.87;0.871;0.888;0.889;0.907;0.908;0.925;0.926;0.944;0.963;0.964;0.981;0.982;0.999;1" values="0,0,0;0,0,0;7.812,0,0;7.812,0,0;15.82,0,0;15.82,0,0;23.83,0,0;23.83,0,0;31.849,0,0;31.849,0,0;39.868,0,0;39.868,0,0;47.894,0,0;47.894,0,0;55.914,0,0;55.914,0,0;63.937,0,0;63.937,0,0;71.948,0,0;71.948,0,0;79.955,0,0;79.955,0,0;87.958,0,0;87.958,0,0;95.81,0,0;89.48,0,0;89.48,0,0;80.689,0,0;80.689,0,0;71.689,0,0;71.689,0,0;62.685,0,0" calcMode="discrete"/><animateTransform attributeName="transform" additive="sum" type="rotate" begin="2.25s" dur="0.5s" keyTimes="0;0.081;0.083;0.165;0.167;0.248;0.25;0.331;0.333;0.415;0.417;0.498;0.5;1" values="62.685,0,0;62.685,0,0;53.67,0,0;53.67,0,0;44.652,0,0;44.652,0,0;35.824,0,0;35.824,0,0;26.811,0,0;26.811,0,0;17.802,0,0;17.802,0,0;8.805,0,0;8.805,0,0" calcMode="discrete"/><animateTransform attributeName="transform" additive="sum" type="scale" dur="1.208s" keyTimes="0;0.516;0.517;0.551;0.552;0.585;0.586;0.62;0.621;0.654;0.655;0.689;0.69;0.723;0.724;0.758;0.759;0.792;0.793;0.827;0.828;0.861;0.862;0.896;0.897;0.93;0.931;0.965;0.966;0.999;1" values="1,1;1,1;0.968,0.968;0.968,0.968;0.935,0.935;0.935,0.935;0.903,0.903;0.903,0.903;0.871,0.871;0.871,0.871;0.839,0.839;0.839,0.839;0.806,0.806;0.806,0.806;0.774,0.774;0.774,0.774;0.742,0.742;0.742,0.742;0.709,0.709;0.709,0.709;0.677,0.677;0.677,0.677;0.645,0.645;0.645,0.645;0.612,0.612;0.612,0.612;0.58,0.58;0.58,0.58;0.55,0.55;0.55,0.55;0.521,0.521" calcMode="discrete"/><animateTransform attributeName="transform" additive="sum" type="scale" begin="1.208s" dur="1.042s" keyTimes="0;0.039;0.04;0.079;0.08;0.119;0.12;0.159;0.16;0.199;0.2;0.239;0.24;0.279;0.28;0.319;0.32;0.359;0.36;0.399;0.4;0.799;0.8;0.84;0.88;0.919;0.92;0.959;0.96;0.999;1" values="0.521,0.521;0.521,0.521;0.491,0.491;0.491,0.491;0.461,0.461;0.461,0.461;0.431,0.431;0.431,0.431;0.401,0.401;0.401,0.401;0.372,0.372;0.372,0.372;0.342,0.342;0.342,0.342;0.312,0.312;0.312,0.312;0.282,0.282;0.282,0.282;0.253,0.253;0.253,0.253;0.252,0.252;0.252,0.252;0.253,0.253;0.253,0.253;0.302,0.302;0.302,0.302;0.372,0.372;0.372,0.372;0.441,0.441;0.441,0.441;0.51,0.51"/><animateTransform attributeName="transform" additive="sum" type="scale" begin="2.25s" dur="0.5s" keyTimes="0;0.081;0.083;0.165;0.167;0.248;0.25;0.331;0.333;0.415;0.417;0.498;0.5;1" values="0.51,0.51;0.51,0.51;0.58,0.58;0.58,0.58;0.649,0.649;0.649,0.649;0.719,0.719;0.719,0.719;0.789,0.789;0.789,0.789;0.859,0.859;0.859,0.859;0.929,0.929;0.929,0.929" calcMode="discrete"/><animate attributeName="opacity" dur="2.25s" keyTimes="0;0.722;0.723;0.74;0.741;0.759;0.76;0.777;0.778;0.796;0.797;0.814;0.815;0.833;0.834;0.851;0.852;0.87;0.871;0.888;0.889;0.907;0.908;0.925;0.926;0.944;0.963;0.964;0.981;0.982;0.999;1" values="1;1;0.92;0.92;0.83;0.83;0.75;0.75;0.67;0.67;0.58;0.58;0.5;0.5;0.42;0.42;0.33;0.33;0.25;0.25;0.17;0.17;0.08;0.08;0;0.07;0.07;0.16;0.16;0.26;0.26;0.35" calcMode="discrete"/><animate attributeName="opacity" begin="2.25s" dur="0.5s" keyTimes="0;0.081;0.083;0.165;0.167;0.248;0.25;0.331;0.333;0.415;0.417;0.498;0.5;1" values="0.35;0.35;0.44;0.44;0.54;0.54;0.63;0.63;0.72;0.72;0.81;0.81;0.91;0.91" calcMode="discrete"/><path fill="#445F69" d="M16.6,-14.35Q15.9,-14.75 15,-14.6L6.05,-12.7Q5.55,-12.6 5.4,-12.45L5.4,-12.35 5.45,-12.2 -6.6,4.65Q-8.5,6.1 -9.65,6.7L-9.35,7.2 -8.9,9.25 -15.85,10.7Q-17.85,11.1 -17.4,13.15 -17.25,14.05 -16.55,14.5 -15.85,14.95 -14.95,14.75L-6,12.9Q-5.696,12.857 -5.425,12.675L-5.2,12.8 3.45,-1.65 5.3,-3.2Q7.1,-4.9 8.5,-6.8L8.95,-7.5 9.05,-7.6 9.025,-7.625 9.05,-7.65 9.25,-7.65 8.95,-9.05 15.85,-10.5Q17.9,-10.95 17.45,-13 17.2,-13.95 16.6,-14.35"/><g id="wing3" transform="matrix(1 0 0 1 -5.25 -7.85)"><path fill="#445F69" d="M24.4,12.3Q26.2,9.65 25.5,6.4 24.85,3.15 22.15,1.4 19.45,-0.4 16.2,0.3L14.65,0.65 14.5,0Q14.4,0 14.3,0 14.1,0.4 13.75,0.85 12.4,2.65 10.55,4.45 8.5,6.35 6.5,7.3L5.65,8.15Q5.65,8.25 5.65,8.35 5.65,8.45 5.55,8.55 5.55,8.6 5.5,8.65 5.45,8.7 5.45,8.8 5.45,8.9 5.4,9 5.35,9.1 5.3,9.2 5.1,9.65 4.6,10.05 4.4,10.25 4.2,10.45L3.15,12.8 2.3,13.2Q2.3,13.3 2.3,13.4 2.3,13.5 2.25,13.55 2.2,13.6 2.15,13.65 2.1,13.7 2,13.8 2,13.85 1.95,13.9 1.9,13.95 1.85,14 1.65,14.25 1.45,14.55 1.3,14.65 1.15,14.85 1.05,14.95 0.85,15.1L0.65,17.6 0.2,18.05 0,20.35 0,20.4Q0.9,22.1 2.6,23.25 5.35,25 8.7,24.35 12,23.65 13.85,20.9 15.2,18.8 15.15,16.6L19.4,15.7Q22.6,15.05 24.4,12.3 M20.9,10.05Q20.1,11.3 18.55,11.6L12.15,12.95Q11.25,13.15 10.8,13.85 10.4,14.5 10.55,15.3L10.55,15.45Q10.85,16.75 10.75,17.35 10.7,17.85 10.25,18.55 9.4,19.85 7.85,20.2 6.3,20.5 4.95,19.65 3.65,18.8 3.35,17.25 3.15,16.25 3.65,14.5 4.25,12.65 5.4,10.85 8.4,6.15 13.05,5.2L13.15,5.15 17.05,4.35Q18.55,4.05 19.85,4.9 21.15,5.75 21.45,7.25 21.75,8.75 20.9,10.05"/></g><g id="wing2" transform="matrix(1 0 0 1 -20.45 -16.8)"><path fill="#445F69" d="M25.9,6.1Q26,5.1 25.85,4.35 25.85,4.3 25.85,4.25L25.8,4.25Q24.9,2.45 23.1,1.3 20.35,-0.5 17,0.2 13.7,0.9 11.9,3.65 10.55,5.7 10.6,7.95L6.3,8.8Q3.1,9.5 1.3,12.2 -0.45,14.85 0.2,18.15 0.85,21.35 3.6,23.15 6.3,24.9 9.55,24.25L10.95,23.95Q12.1,23.3 13.2,22.5 14.8,21.35 16.25,20.8 17,20.3 17.6,19.85 19,18.55 20.35,17.1 20.55,16.9 20.65,16.6 20.7,16.45 20.85,16.15 20.95,16.05 21.1,16 21.2,15.95 21.25,15.85 21.4,15.85 21.45,15.75 21.5,15.65 21.55,15.6 21.7,15.4 21.85,15.25 21.9,15.2 21.95,15.15 22,15.1 22.15,15.1 22.25,15.1 22.35,15.1 22.25,14.35 22.55,13.85 24,11.65 24.6,9.25 24.7,8.8 24.85,8.5 24.95,8.2 24.85,7.55L25.9,6.1 M22.1,10Q21.5,11.9 20.35,13.7 17.35,18.35 12.7,19.3L12.55,19.35 8.7,20.15Q7.15,20.5 5.9,19.6 4.6,18.8 4.3,17.25 3.95,15.75 4.8,14.5 5.65,13.2 7.15,12.9L13.55,11.55Q14.45,11.4 14.9,10.7 15.3,10.05 15.2,9.2L15.15,9.1Q14.9,7.8 15,7.2 15.05,6.65 15.5,6 16.35,4.7 17.9,4.35 19.45,4.05 20.75,4.85 22.1,5.75 22.4,7.3 22.6,8.25 22.1,10"/></g></g><animate attributeName="display" repeatCount="1" dur="2.75s" keyTimes="0;0.152;0.924;1" values="none;inline;none;none"/></g><g><g id="Tween_5" transform="matrix(1 0 0 1 59.4 46.05)"><path fill="#445F69" d="M16.6,-14.45Q15.9,-14.85 15,-14.7L6.05,-12.8Q5.65,-12.75 5.35,-12.55 4.45,-14.35 2.65,-15.5 -0.1,-17.3 -3.45,-16.6 -6.75,-15.9 -8.55,-13.15 -9.9,-11.1 -9.85,-8.85L-14.15,-8Q-17.35,-7.3 -19.15,-4.6 -20.9,-1.95 -20.25,1.35 -19.6,4.55 -16.85,6.35 -14.15,8.1 -10.9,7.45L-9.35,7.1 -8.9,9.15 -15.85,10.6Q-17.85,11 -17.4,13.05 -17.2,14 -16.55,14.4 -15.9,14.85 -14.95,14.65L-6,12.8Q-5.65,12.7 -5.35,12.5 -4.4,14.3 -2.65,15.5 0.1,17.25 3.45,16.6 6.75,15.9 8.6,13.15 9.95,11.05 9.9,8.85L14.15,7.95Q17.35,7.3 19.15,4.55 20.95,1.9 20.25,-1.35 19.6,-4.6 16.9,-6.35 14.2,-8.15 10.95,-7.45L9.4,-7.1 8.95,-9.15 15.85,-10.6Q17.85,-11.05 17.45,-13.1 17.25,-13.95 16.6,-14.45 M1.65,-6.8Q1.05,-4.9 -0.1,-3.1 -3.1,1.55 -7.75,2.5L-7.9,2.55 -11.75,3.35Q-13.3,3.7 -14.55,2.8 -15.85,2 -16.15,0.45 -16.5,-1.05 -15.65,-2.3 -14.8,-3.6 -13.3,-3.9L-6.9,-5.25Q-6,-5.4 -5.55,-6.1 -5.15,-6.75 -5.25,-7.6L-5.3,-7.7Q-5.55,-9 -5.45,-9.6 -5.4,-10.15 -4.95,-10.8 -4.1,-12.1 -2.55,-12.45 -1,-12.75 0.3,-11.95 1.65,-11.05 1.95,-9.5 2.15,-8.55 1.65,-6.8 M7.9,-2.6L11.8,-3.4Q13.3,-3.7 14.6,-2.85 15.9,-2 16.2,-0.5 16.5,1 15.65,2.3 14.85,3.55 13.3,3.85L6.9,5.2Q6,5.4 5.55,6.1 5.15,6.75 5.3,7.55L5.3,7.7Q5.6,9 5.5,9.6 5.45,10.1 5,10.8 4.15,12.1 2.6,12.45 1.05,12.75 -0.3,11.9 -1.6,11.05 -1.9,9.5 -2.1,8.5 -1.6,6.75 -1,4.9 0.15,3.1 3.15,-1.6 7.8,-2.55L7.9,-2.6"/></g><animate attributeName="display" repeatCount="1" dur="2.75s" keyTimes="0;0.136;0.152;0.924;1" values="none;inline;none;inline;none"/></g><g style="display:none;"><g transform="matrix(1 0 0 1 59.4 46.05)" opacity="1" id="Tween_4"><path fill="#445F69" d="M16.6,-14.45Q15.9,-14.85 15,-14.7L6.05,-12.8Q5.65,-12.75 5.35,-12.55 4.45,-14.35 2.65,-15.5 -0.1,-17.3 -3.45,-16.6 -6.75,-15.9 -8.55,-13.15 -9.9,-11.1 -9.85,-8.85L-14.15,-8Q-17.35,-7.3 -19.15,-4.6 -20.9,-1.95 -20.25,1.35 -19.6,4.55 -16.85,6.35 -14.15,8.1 -10.9,7.45L-9.35,7.1 -8.9,9.15 -15.85,10.6Q-17.85,11 -17.4,13.05 -17.2,14 -16.55,14.4 -15.9,14.85 -14.95,14.65L-6,12.8Q-5.65,12.7 -5.35,12.5 -4.4,14.3 -2.65,15.5 0.1,17.25 3.45,16.6 6.75,15.9 8.6,13.15 9.95,11.05 9.9,8.85L14.15,7.95Q17.35,7.3 19.15,4.55 20.95,1.9 20.25,-1.35 19.6,-4.6 16.9,-6.35 14.2,-8.15 10.95,-7.45L9.4,-7.1 8.95,-9.15 15.85,-10.6Q17.85,-11.05 17.45,-13.1 17.25,-13.95 16.6,-14.45 M1.65,-6.8Q1.05,-4.9 -0.1,-3.1 -3.1,1.55 -7.75,2.5L-7.9,2.55 -11.75,3.35Q-13.3,3.7 -14.55,2.8 -15.85,2 -16.15,0.45 -16.5,-1.05 -15.65,-2.3 -14.8,-3.6 -13.3,-3.9L-6.9,-5.25Q-6,-5.4 -5.55,-6.1 -5.15,-6.75 -5.25,-7.6L-5.3,-7.7Q-5.55,-9 -5.45,-9.6 -5.4,-10.15 -4.95,-10.8 -4.1,-12.1 -2.55,-12.45 -1,-12.75 0.3,-11.95 1.65,-11.05 1.95,-9.5 2.15,-8.55 1.65,-6.8 M7.9,-2.6L11.8,-3.4Q13.3,-3.7 14.6,-2.85 15.9,-2 16.2,-0.5 16.5,1 15.65,2.3 14.85,3.55 13.3,3.85L6.9,5.2Q6,5.4 5.55,6.1 5.15,6.75 5.3,7.55L5.3,7.7Q5.6,9 5.5,9.6 5.45,10.1 5,10.8 4.15,12.1 2.6,12.45 1.05,12.75 -0.3,11.9 -1.6,11.05 -1.9,9.5 -2.1,8.5 -1.6,6.75 -1,4.9 0.15,3.1 3.15,-1.6 7.8,-2.55L7.9,-2.6"/><animateTransform attributeName="transform" additive="replace" type="translate" dur="2.75s" keyTimes="0;1" values="59.4,46.05;59.4,46.05"/><animateTransform attributeName="transform" additive="sum" type="scale" dur="2.75s" keyTimes="0;0.045;1" values="0.218,0.024;1,1;1,1"/><animate attributeName="opacity" dur="2.75s" keyTimes="0;0.045;1" values="0;1;1"/></g><animate attributeName="display" repeatCount="1" dur="2.75s" keyTimes="0;0.136;1" values="inline;none;none"/></g><g><g id="FlashAICB_Layer_1_.__3CGroup.__3E_1" transform="matrix(0.356 0 0 0.356 9.9 63.3)"><animateTransform attributeName="transform" additive="replace" type="translate" dur="2.75s" keyTimes="0;0.076;0.106;1" values="50.65,63.3;50.65,63.3;9.9,63.3;9.9,63.3"/><animateTransform attributeName="transform" additive="sum" type="scale" dur="2.75s" keyTimes="0;1" values="0.356,0.356;0.356,0.356"/><path fill="#445F69" d="M26.85,0L24.8,0Q19.25,0 16.35,0.95 13.45,1.9 11.45,4.05 9.55,6.25 9.1,9.45 8.6,12.45 8.6,19.25 8.6,28 6.45,30.45 4.3,33 0,33L0,42.4Q4.4,42.65 5.95,44.45 7.55,46.35 8.05,48.55 8.6,50.9 8.6,58.8 8.6,66.15 10.15,69.3 11.65,72.55 15.1,74 18.55,75.45 24.8,75.45L26.8,75.45 26.8,66Q22,66 20.7,65.15 19.35,64.35 19,62.7L18.4,51.25Q18.2,45.85 16.55,42.8 15.05,39.9 11.45,37.7 15.1,35.45 16.5,32.8 17.9,30.1 18.25,27.4 18.65,24.55 18.85,15.15 18.95,11.75 20.05,10.55 21.2,9.35 26.85,9.35L26.85,0" fill-opacity="0.28"/></g><animate attributeName="display" repeatCount="1" dur="2.75s" keyTimes="0;0.076;1" values="none;inline;none"/></g><g><g id="FlashAICB_Layer_1_.__3CGroup.__3E" transform="matrix(0.356 0 0 0.356 103.05 63.3)"><animateTransform attributeName="transform" additive="replace" type="translate" dur="2.75s" keyTimes="0;0.076;0.106;1" values="60.55,63.3;60.55,63.3;103.05,63.3;103.05,63.3"/><animateTransform attributeName="transform" additive="sum" type="scale" dur="2.75s" keyTimes="0;1" values="0.356,0.356;0.356,0.356"/><path fill="#445F69" d="M18.25,16.65Q18.25,9.35 16.7,6.1 15.2,2.9 11.75,1.4 8.45,0 2.05,0L0.05,0 0.05,9.4Q4.75,9.4 6.15,10.25 7.45,11.05 7.85,12.75L8.45,24.15Q8.65,29.65 10.3,32.65 11.9,35.6 15.4,37.7 11.75,40.05 10.35,42.65 8.95,45.25 8.6,48.05 8.25,50.8 8,60.3 7.95,63.7 6.8,64.9 5.65,66.05 0,66.05L0,75.45 2.05,75.45Q7.4,75.45 10.5,74.45 13.4,73.6 15.4,71.35 17.3,69.15 17.75,66 18.25,62.95 18.25,56.15 18.25,47.4 20.4,44.95 22.6,42.5 26.85,42.4L26.85,33Q22.5,32.85 20.9,31 19.35,29.15 18.8,26.9 18.25,24.55 18.25,16.65" fill-opacity="0.28"/></g><animate attributeName="display" repeatCount="1" dur="2.75s" keyTimes="0;0.076;1" values="none;inline;none"/></g><g><g id="Tween_3" transform="matrix(1 0 0 1 61.9 71.55)"><g transform="matrix(0.356 0 0 0.356 -86 -191.5)"><path fill="#445F69" d="M186.35,525.9L186.1,525.9 185.6,525.95 185.2,526.2 185,526.55 184.9,527.1 185,527.6Q185,527.8 185.2,528L185.55,528.2 186.1,528.3 186.35,528.3 186.85,528.2 187.25,528 187.5,527.6 187.55,527.1 187.5,526.55 187.25,526.2 186.9,525.95 186.35,525.9"/><path fill="#445F69" d="M187.15,532.55L186.7,532.65 185.3,532.8 185.25,551.05 187.1,551.1 187.15,532.55"/></g><g transform="matrix(0.356 0 0 0.356 -86 -191.5)"><path fill="#445F69" d="M203.6,534.7Q204.6,535.1 205.2,535.75 205.85,536.4 206.15,537.45 206.5,538.45 206.5,539.85L206.45,551.15 208.2,551.15 208.25,539.9Q208.25,538.2 207.85,536.75 207.5,535.4 206.65,534.5 205.85,533.6 204.6,533.15 203.4,532.7 201.75,532.7 201.1,532.7 200.75,532.75L199.8,532.9 198,533.6 197.4,533.95 196.3,534.9 195.85,535.45 195.85,532.65 194,533.1 193.95,551.1 195.8,551.1 195.8,539.75Q195.8,539.15 195.95,538.55 196,538.05 196.3,537.5L196.85,536.55Q197.35,535.95 197.65,535.7L198.5,535.1 199.4,534.7 200.35,534.45 201.4,534.4Q202.7,534.4 203.6,534.7"/></g><g transform="matrix(0.356 0 0 0.356 -86 -191.5)"><path fill="#445F69" d="M212.6,534.4L215,534.4 215.05,546.6 215.25,547.75 215.6,548.7Q215.75,549.05 216.15,549.55 216.5,550.05 216.8,550.3 217.05,550.55 217.65,550.85 218.1,551.1 218.6,551.15L219.75,551.3 220.5,551.25Q220.75,551.2 221.3,551.1L222,550.95 223.2,550.45 223.75,550.15 223.85,550.05 223.75,547.95 223.5,548.25 222.25,549 221.65,549.25Q221.2,549.4 221.1,549.4L220,549.55Q219.25,549.55 218.6,549.3 217.95,549 217.6,548.55 217.15,548.05 217,547.25 216.8,546.6 216.8,545.5L216.8,534.4 224.1,534.45 224.1,533.2 224.15,532.8 216.8,532.75 216.85,526.7 215.05,527.05 215,532.75 212.6,532.75 212.6,534.4"/></g><g transform="matrix(0.356 0 0 0.356 -86 -191.5)"><path fill="#445F69" d="M228.5,536.35L227.85,537.7Q227.55,538.7 227.5,539.2 227.35,540.05 227.35,540.9L227.45,545.45 227.8,546.85 228.4,548.1Q228.65,548.5 229.25,549.2L230.35,550.05Q230.95,550.5 231.6,550.7L233,551.1Q234,551.2 234.65,551.2L236,551.15 236.7,551Q237.05,551 237.35,550.85L237.9,550.75 240.05,549.8 240.95,549.2 241,549.1 241.05,549.1 241.05,546.8 239.8,547.85 238.4,548.65 237.5,549.05 236.55,549.3Q236.1,549.45 235.6,549.45 235.3,549.5 234.65,549.5L233.55,549.45 232.55,549.2 231.65,548.85 230.85,548.3 230.1,547.55 229.6,546.7Q229.4,546.2 229.3,545.65 229.2,545.3 229.2,544.5L229.2,543.2 235.95,543.2 237.2,543.1 238.35,542.85Q238.9,542.7 239.35,542.4L240.2,541.75 240.9,541 241.4,540.1Q241.6,539.65 241.7,539.1L241.8,538.05 241.7,536.95Q241.65,536.6 241.35,536 241.05,535.4 240.8,535.1L240.05,534.3 239.1,533.65Q238.35,533.3 238.05,533.2 238,533.15 236.9,532.9L234.85,532.8Q234,532.8 233.25,532.95 232.45,533.1 231.8,533.4 231,533.75 230.55,534.1 229.9,534.6 229.4,535.15L228.5,536.35 M230.05,537.15Q230.3,536.7 230.75,536.25 231.2,535.7 231.6,535.45 232,535.15 232.55,534.85L233.6,534.5 234.75,534.4 236.6,534.45 238.1,534.95 238.75,535.4 239.3,535.95Q239.5,536.15 239.7,536.55 239.85,536.85 239.95,537.25L240.05,537.95 240,538.7 239.8,539.35 239.5,539.95 239.05,540.5 238.5,540.95 237.85,541.3 237.1,541.5 229.2,541.5 229.3,539.15Q229.4,538.65 229.6,538.1 229.65,538 230.05,537.15"/></g><g transform="matrix(0.356 0 0 0.356 -86 -191.5)"><path fill="#445F69" d="M251.75,534.95Q252.1,534.75 252.6,534.65L253.5,534.55 254.2,534.6 255.45,534.95 256.05,535.3 256.4,533.55 256.15,533.4 254.35,532.9 253.5,532.85Q252.8,532.85 252.2,533 251.7,533.1 251.05,533.5 250.45,533.9 250.05,534.4 249.65,534.85 249.25,535.6L249.25,532.85 247.45,533.15 247.4,551.25 249.2,551.25 249.2,539.5 249.3,538.55 249.5,537.7 249.85,536.85 250.35,536.1 251,535.45Q251.5,535.05 251.75,534.95"/></g><g transform="matrix(0.356 0 0 0.356 -86 -191.5)"><path fill="#445F69" d="M259.25,537.7Q260.1,537.15 260.75,536.9L262.25,536.3Q263,536.1 263.8,536 264.65,535.85 265.4,535.85L266.5,536Q267.1,536.15 267.4,536.35 267.9,536.7 268.15,537L268.65,537.85 268.85,538.8 268.9,540.75 267.95,540.05Q267.6,539.8 266.9,539.5 266.25,539.25 265.7,539.2 265.3,539.1 264.4,539.1L263.55,539.1Q262.65,539.1 262.25,539.2L261.05,539.45Q260.2,539.8 260,539.95L259,540.65Q258.45,541.15 258.1,541.6L257.45,542.7Q257.15,543.5 257.1,544 256.95,544.6 256.95,545.4L257.05,546.75 257.45,547.95Q257.7,548.5 258.1,549 258.45,549.45 259,549.95L259.95,550.65Q260.5,550.95 261.05,551.1 261.55,551.3 262.2,551.4 262.6,551.5 263.5,551.5L264.25,551.5Q265.2,551.5 265.65,551.4 266.35,551.3 266.95,551.1L268.1,550.6Q268.7,550.25 269.1,549.85L269.1,550.6 269.15,550.95 269.15,551.3 273.2,551.35 273.2,539.85Q273.2,539 273.05,538.25 273,537.55 272.65,536.8 272.3,536.05 271.9,535.5 271.3,534.7 270.9,534.35 270.1,533.65 269.65,533.4 269.15,533.05 268.25,532.7L266.7,532.3 265,532.15 261.9,532.4 258.15,533.5 259.25,537.7 M262.15,543.25Q262.65,542.95 263.15,542.8 263.6,542.6 264.5,542.6L266,542.6 266.55,542.65 267.1,542.8 268,543.25 268.4,543.65 268.7,544.1 268.85,544.6 268.9,545.2 268.85,545.75 268.7,546.25 268.4,546.7 267.95,547.1 267.5,547.4 267.05,547.6 266.55,547.75 264.85,547.8 264.45,547.75Q263.7,547.75 263.1,547.6 262.45,547.4 262.15,547.1 261.75,546.75 261.6,546.3 261.4,545.9 261.4,545.2 261.4,544.5 261.6,544.05 261.75,543.55 262.15,543.25"/></g><g transform="matrix(0.356 0 0 0.356 -86 -191.5)"><path fill="#445F69" d="M290.75,533.3Q290.2,533 289.2,532.75L287.55,532.4Q286.35,532.3 285.7,532.3L285.4,532.3 283.8,532.45 282.35,532.85Q281.6,533.15 281,533.6 280.25,534.1 279.75,534.6 279.1,535.25 278.7,535.85 278.4,536.25 278,537.15 277.7,537.9 277.55,538.65 277.4,539.4 277.4,540.2L277.35,543.55Q277.35,544.35 277.5,545.15 277.65,545.95 277.95,546.6 278.25,547.35 278.7,547.95 279.2,548.7 279.7,549.2 280.4,549.9 280.95,550.2 281.55,550.65 282.3,550.95 282.95,551.25 283.75,551.4 284.6,551.55 285.35,551.55L285.65,551.55Q286.2,551.55 286.45,551.5L287.3,551.45 289.05,551.05 289.95,550.75 291.55,550 292.2,549.5 291,545.5 289.6,546.65 288.3,547.3 286.75,547.7Q286.45,547.75 285.95,547.75L285.7,547.75 284.9,547.65 284.2,547.4 283.55,547.05 282.95,546.5 282.45,545.9 282.05,545.15 281.85,544.4 281.85,539.4 282.05,538.6 282.4,537.9 282.9,537.25 283.5,536.7 284.15,536.3 284.9,536.1 285.7,536 287.2,536.15 287.9,536.35 289.15,536.85 290.85,537.9 292.1,534.05 290.75,533.3"/></g><g transform="matrix(0.356 0 0 0.356 -86 -191.5)"><path fill="#445F69" d="M303.1,544.25L303.1,535.65 309.7,535.65 309.7,532.2 303.1,532.2 303.15,525.95 298.85,526.75 298.85,532.15 296.3,532.15 296.3,535.6 298.85,535.65 298.9,545.65 299.15,546.95 299.55,548.1Q299.75,548.6 300.1,549.15 300.5,549.75 300.95,550.15 301.35,550.55 301.95,550.9L303.15,551.35 305.25,551.45 305.9,551.4 307.2,551.1 308.15,550.75 308.95,550.3 309,546.25Q308.6,546.65 308.2,546.85L307.4,547.25 306.55,547.5 305.65,547.6Q305.15,547.6 304.55,547.4 304.05,547.2 303.75,546.75 303.4,546.35 303.25,545.7 303.1,545.1 303.1,544.25"/></g><g transform="matrix(0.356 0 0 0.356 -86 -191.5)"><path fill="#445F69" d="M315.7,524.65L314.6,524.8Q314.15,524.95 313.85,525.25 313.55,525.55 313.4,526 313.25,526.55 313.25,527.1 313.25,527.7 313.4,528.15 313.55,528.65 313.85,528.95 314.15,529.25 314.6,529.4 315.05,529.55 315.65,529.55L315.95,529.55Q316.55,529.55 317,529.4 317.5,529.25 317.75,528.9 318.05,528.6 318.2,528.15 318.35,527.7 318.35,527.1 318.35,526.5 318.2,526.05 317.95,525.55 317.7,525.3 317.4,525 316.95,524.85 316.65,524.75 315.85,524.65L315.7,524.65"/><path fill="#445F69" d="M317.9,532.05L313.6,532.65 313.55,551.35 317.85,551.35 317.9,532.05"/></g><g transform="matrix(0.356 0 0 0.356 -86 -191.5)"><path fill="#445F69" d="M337.65,532.3L333.1,532.3 329.35,546.75 329.3,547.2 329.2,546.6 329.1,546.3 329.05,546 325.55,532.3 321.05,532.25 326.9,551.4 331.6,551.4 337.65,532.3"/></g><g transform="matrix(0.356 0 0 0.356 -86 -191.5)"><path fill="#445F69" d="M340.65,539.15L340.45,543Q340.45,543.95 340.6,544.85 340.75,545.75 341.05,546.5L341.75,548Q342.15,548.6 342.8,549.25 343.35,549.85 344,550.3L345.35,551.05 346.85,551.45 348.5,551.6 350.7,551.5 352.45,551.15Q352.75,551.15 352.95,551L354.2,550.55 354.9,550.2 355.1,550.05 355.35,549.95 355.8,549.65 355.85,549.65 355.85,549.6 355.9,549.6 356.05,545.15 354.6,546.35 353,547.2 351.1,547.8 350.1,547.95Q349.75,548 349.05,548 348.5,548 348.25,547.95L347.5,547.75 346.8,547.4 346.2,546.9 345.6,546.25 345.25,545.55Q345.1,545.3 345,544.8L344.9,543.95 344.9,543.65 350.3,543.65Q351.9,543.65 353.1,543.35 354.35,543.05 355.15,542.45 355.95,541.85 356.35,540.9 356.75,539.95 356.75,538.8L356.75,538.7 356.65,537.35 356.25,536.1Q355.75,535.25 355.6,535.05L354.65,534.1 353.55,533.3 352.3,532.75 350.9,532.4Q349.9,532.3 349.35,532.3L347.55,532.45Q346.7,532.6 345.85,532.9L344.35,533.65Q343.6,534.15 343.05,534.7 342.35,535.4 341.9,536.05L341.1,537.5Q340.8,538.35 340.65,539.15 M350.7,536.2Q351.35,536.35 351.7,536.6 352.1,536.9 352.25,537.3 352.45,537.7 352.45,538.3 352.45,538.85 352.3,539.2 352.2,539.45 351.8,539.85L351,540.25 349.85,540.35 344.95,540.35 345,539.5 345.2,538.7Q345.25,538.4 345.5,538L345.95,537.4 346.6,536.8 347.35,536.4Q347.65,536.25 348.3,536.15 348.6,536.05 349.35,536.05 350.1,536.05 350.7,536.2"/></g><g transform="matrix(0.356 0 0 0.356 -85.95 -191.3)"><path fill="#445F69" d="M126.4,534.8Q126.4,539.15 129.8,541.45 133.05,543.7 136.6,542.35L130.55,550.95 134.95,550.95Q142.7,540.05 143.7,538.4 145.45,535.6 143.9,531.3 142,526 135.5,526 131.95,526 129.35,528.15 126.4,530.6 126.4,534.8 M139.45,530.9Q141.1,532.4 141.1,534.5 141.1,536.65 139.45,538.15 137.85,539.65 135.5,539.65 133.2,539.65 131.55,538.15 129.9,536.65 129.9,534.5 129.9,532.4 131.55,530.9 133.2,529.4 135.5,529.4 137.8,529.4 139.45,530.9"/></g><path fill="#445F69" d="M-34,-3.65L-33.8,-3.35Q-33.55,-2.95 -33.35,-2.5 -32.65,-3.15 -31.85,-3.1 -31.1,-3.1 -30.6,-2.55 -30.1,-2.05 -30.1,-1.4 -30.15,-0.65 -30.85,-0.1 -31.5,0.4 -35.1,3.55L-35.1,4.5 -28.25,4.55Q-28.45,4.4 -28.7,4.2 -29.1,3.75 -29.1,3.25L-33,3.3 -29.6,0.5Q-28.75,-0.2 -28.8,-1.5 -28.9,-3.5 -30.85,-4.15 -32.75,-4.75 -34,-3.65"/><g transform="matrix(0.356 0 0 0.356 -86 -191.5)"><path fill="#445F69" d="M179.3,530.65L179.3,527.2 161.75,527.2 163.25,529.35Q164.8,532 164.75,534.35 164.7,536.9 163.55,538.95L165.55,539.9 167.05,539.1Q168.9,538.3 170.75,538.35 174.2,538.45 175.9,540.4 177.1,541.8 177.1,543.65 177.1,545.4 175.95,546.75 174.5,548.55 171.65,548.45 169.05,548.35 167.6,546.85L166.65,545.4Q164.8,547.15 163.5,547.2 164.5,549.9 167.25,551.15 169.35,552.1 171.95,552.05 174.85,552 177.35,550.25 180.6,547.95 180.7,543.75 180.8,539.5 177.55,537.05 175.1,535.15 172.2,535 170.45,534.9 168.65,535.25L167.15,535.6 167.15,530.65 179.3,530.65"/></g></g><animate attributeName="display" repeatCount="1" dur="2.75s" keyTimes="0;0.106;1" values="none;inline;none"/></g><g><g id="Tween_2" transform="matrix(1 0 0 1 58.7 84)"><g transform="matrix(0.356 0 0 0.356 -82.75 -203.75)"><path fill="#445F69" d="M198,567.1L196.45,567.35 196.45,568.75Q195.9,568.05 195.15,567.65 194.15,567.1 192.95,567.1 191.3,567.1 190,568.25 188.75,569.5 188.75,571.15L188.75,573.85Q188.75,575.8 190.1,577 191.35,578.1 193,578.1 194.3,578.1 195.25,577.55 196.15,577.1 196.45,576.5L196.45,582.4 198,582.05 198,567.1 M193.4,576.7Q192,576.7 191.2,575.9 190.35,575.1 190.35,573.7L190.35,571.65Q190.35,570.2 191.2,569.35 192.05,568.5 193.35,568.5 194.55,568.5 195.5,569.35 196.45,570.3 196.45,571.65L196.45,573.7Q196.45,574.9 195.5,575.85 194.65,576.7 193.4,576.7"/></g><g transform="matrix(0.356 0 0 0.356 -82.75 -203.75)"><path fill="#445F69" d="M201.25,567.15L201.25,573.5Q201.25,578.15 205.35,578.15 207.2,578.15 208.5,576.75L208.5,578.15 210.1,578.15 210.1,567.15 208.5,567.15 208.5,573.8Q208.5,575.1 207.7,575.9 206.85,576.75 205.65,576.75 202.8,576.75 202.8,573.8L202.8,567.15 201.25,567.15"/></g><g transform="matrix(0.356 0 0 0.356 -82.75 -203.75)"><path fill="#445F69" d="M218.05,567.15Q215.75,567.15 214.45,568.6 213.25,569.95 213.25,572.05L213.25,573.85Q213.25,576.1 214.7,577.3 215.95,578.25 217.95,578.25 218.9,578.25 220.2,577.85 221.1,577.55 221.7,577.1L221.75,575.35Q221.2,575.9 220.2,576.35 219.15,576.85 218,576.85 216.6,576.85 215.75,576.25 214.8,575.6 214.8,574.3L214.8,573.5 218.25,573.5Q222.2,573.5 222.2,570.5 222.2,569 220.95,568.05 219.75,567.15 218.05,567.15 M218.3,572.2L214.8,572.2 214.8,571.8Q214.8,570.3 215.75,569.4 216.65,568.45 218.05,568.45 220.65,568.45 220.65,570.45 220.65,572.2 218.3,572.2"/></g><g transform="matrix(0.356 0 0 0.356 -82.75 -203.75)"><path fill="#445F69" d="M234,567.15Q232.3,567.15 231.1,568.4 229.85,569.75 229.85,571.65L229.85,573.95Q229.85,575.8 231.1,577 232.35,578.15 234.05,578.15L234.25,578.15Q236.65,578.15 237.5,576.7L237.45,578.15 239.05,578.15 239.05,562.75 237.45,563.1 237.45,568.8Q237.15,568.2 236.15,567.65 235.15,567.15 234,567.15 M237.45,571.5L237.45,573.85Q237.45,575.15 236.65,575.9 235.95,576.75 234.5,576.75 233.05,576.75 232.25,575.9 231.4,575.1 231.4,573.75L231.4,571.5Q231.4,570.35 232.2,569.55 233.05,568.65 234.3,568.65 235.75,568.65 236.65,569.55 237.45,570.4 237.45,571.5"/></g><g transform="matrix(0.356 0 0 0.356 -82.75 -203.75)"><path fill="#445F69" d="M242.3,567.15L242.3,573.5Q242.3,578.15 246.45,578.15 248.3,578.15 249.6,576.75L249.6,578.15 251.15,578.15 251.15,567.15 249.6,567.15 249.6,573.8Q249.6,575.05 248.75,575.9 247.9,576.75 246.7,576.75 243.9,576.75 243.9,573.8L243.9,567.15 242.3,567.15"/></g><g transform="matrix(0.356 0 0 0.356 -82.75 -203.75)"><path fill="#445F69" d="M273.4,567.1L271.75,567.1 269.35,576.7 269.25,576.45 269.15,575.8 269.05,575.55 266.9,567.15 265.2,567.15 262.9,576.45 262.8,576.7 260.4,567.1 258.75,567.1 261.75,578.15 263.9,578.15 266,569.8 266.05,569.35 266.1,569.8 268.25,578.15 270.4,578.15 273.4,567.1"/></g><g transform="matrix(0.356 0 0 0.356 -82.75 -203.75)"><path fill="#445F69" d="M280.05,567.15Q277.8,567.15 276.5,568.6 275.25,570 275.25,572.05L275.25,573.85Q275.25,576.1 276.75,577.3 278,578.25 279.95,578.25 281,578.25 282.2,577.85 283.2,577.55 283.7,577.1L283.8,575.35Q283.25,575.9 282.25,576.35 281.1,576.85 280.05,576.85 278.65,576.85 277.8,576.25 276.85,575.6 276.85,574.3L276.85,573.5 280.3,573.5Q284.25,573.5 284.25,570.5 284.25,569.05 283,568.05 281.8,567.15 280.05,567.15 M280.3,572.2L276.85,572.2 276.85,571.8Q276.85,570.3 277.8,569.4 278.7,568.45 280.05,568.45 282.65,568.45 282.65,570.45 282.65,572.2 280.3,572.2"/></g><g transform="matrix(0.356 0 0 0.356 -82.75 -203.75)"><path fill="#445F69" d="M295.05,568.4Q293.8,567.15 292.1,567.15 289.65,567.15 288.65,568.75L288.65,562.75 287.1,563.25 287.1,578.15 288.65,578.15 288.65,576.7Q289.5,578.15 291.9,578.15L292.05,578.15Q293.8,578.1 295,576.95 296.3,575.75 296.3,573.95L296.3,571.6Q296.3,569.65 295.05,568.4 M294.75,571.5L294.75,573.7Q294.75,574.95 293.9,575.9 292.95,576.75 291.6,576.75 290.3,576.75 289.45,575.9 288.65,575.1 288.65,573.8L288.65,571.5Q288.65,570.4 289.5,569.55 290.4,568.6 291.85,568.6 293.1,568.6 293.9,569.5 294.75,570.35 294.75,571.5"/></g><g transform="matrix(0.356 0 0 0.356 -82.8 -203.95)"><path fill="#445F69" d="M178.1,564.05L174.5,564.05 174.5,570.75 168.9,570.75 168.9,574.35 174.5,574.35 174.5,581.1 178.1,581.1 178.1,574.35 183.65,574.35 183.65,570.75 178.1,570.75 178.1,564.05"/></g></g><animate attributeName="display" repeatCount="1" dur="2.75s" keyTimes="0;0.106;1" values="none;inline;none"/></g><defs/></svg>