<?xml version="1.0" encoding="utf-8"?>
<!-- Generator: Adobe Illustrator 18.1.1, SVG Export Plug-In . SVG Version: 6.00 Build 0)  -->
<!DOCTYPE svg PUBLIC "-//W3C//DTD SVG 1.1//EN" "http://www.w3.org/Graphics/SVG/1.1/DTD/svg11.dtd">
<svg version="1.1" id="Layer_1" xmlns="http://www.w3.org/2000/svg" xmlns:xlink="http://www.w3.org/1999/xlink" x="0px" y="0px"
	 viewBox="234 -278.2 588.2 588.2" enable-background="new 234 -278.2 588.2 588.2" xml:space="preserve">
<path fill="#009A99" d="M594.2-86.1l-79.2,69.7c0,0,191.8,16.9,180,218.3C792.8-12.2,594.2-86.1,594.2-86.1z"/>
<path fill="#009A99" d="M411.9,120.6c0,0-50.6,59-23.4,115.1c12.5,14.2,47.5,56.5,145.5,60.5c98,4,140.7-80.3,140.7-80.3
	s3.8-52.5-6.9-71.1C660.3,154,520,275.9,411.9,120.6z"/>
<g>
	<path fill="#009A99" d="M649.1-181.8c-1-10.8-2.8-21-5.6-30.6c-2.2-6.6-4.7-12.9-7.6-18.9c-2.9-6-6.2-11.4-9.9-16.2
		c-8-10.3-16.9-16.5-26.8-18.6c-9.9-2.1-19.1,0.2-27.5,6.7c-0.7,0.6-1.6,1.2-2.5,1.9c-0.9,0.7-1.6,1.5-2.1,2.5
		C528-227.1,213,15.1,364.2,207.7C336.7,94.7,531.8-79.2,610.2-140.3c11.6-9.3,19.3-16.1,23-16.6c10.5-1.5,10.3,4.1,15.8,7.5
		C650.1-160.2,650.1-171,649.1-181.8z"/>
</g>
</svg>
